<svg enable-background="new 0 0 500 281.2" viewBox="0 0 500 281.2" xmlns="http://www.w3.org/2000/svg"><path d="m-13.7-6.2h537v298.7h-537z" fill="#2a2a4d"/><path d="m454.1 172.9c.4-.2.8-.3.8-.6s-.3-.4-.4-.5c-.2-.1-.4-.1-.8-.2-.5-.1-1.2-.2-1.9-.4.1-.1.3-.2.5-.2.3-.1.4-.2.4-.3v-.1h-.1c-.2-.1-.9-.3-1.7-.5s-1.6-.5-1.9-.6c.1 0 .2-.1.3-.1.3-.1.5-.2.6-.4 0-.1 0-.2-.1-.3-.3-.2-1.3-.6-2.3-1s-2.2-.9-2.5-1.1c-.5-.4-1-.8-1.4-1.1h.4c.4 0 .7 0 .7-.2.1-.2-.1-.3-.2-.3-.7-.6-2.5-1.6-4.1-2.4l-.3-.2c-.1-.1-.2-.1-.2-.1.1-.1.2-.1.3-.2.2-.1.4-.2.5-.3 0-.1 0-.2-.2-.2-.4-.3-1.7-.6-2.9-1-1-.3-1.9-.6-2.3-.7-4.8-2.2-12.1-4.1-13.8-4.5 1.1-.5 4.7-1.9 8.6-.9 1.8.5 4.9-.2 8.2-1.9.1-.1.1-.1.2-.2.1-.2-.1-.4-.2-.6-.1-.1-.2-.3-.2-.4.6-.3 1.4-.6 2.3-.8 1.1-.3 2.2-.7 2.8-1.2.3-.3.1-.7 0-.9-.2-.3-.2-.5-.1-.6.3-.3 1-.8 1.7-1.2.8-.5 1.5-.9 1.8-1.3.1-.2.2-.3.2-.4 0-.2-.2-.4-.3-.5-.2-.1-.2-.2-.2-.3l2.4-1.7c.6-.7 2.4-1.4 3.5-1.7.2 0 .3-.1.4-.3 0-.2-.2-.3-.4-.4-.3-.2-.5-.3-.4-.4.2-.4 1.4-1.3 2.2-2 .2-.2.4-.3.6-.5.1-.1.3-.2.2-.3s-.2-.1-.5 0c-.1 0-.3.1-.5.1.2-.3 1-.9 1.7-1.4s1.3-1 1.6-1.3c.1-.1.2-.2.1-.4-.1-.1-.2-.1-.5 0-.1 0-.1 0-.2.1 0 0 .1-.1.1-.1.3-.5.9-.9 1.4-1.2s.9-.6 1.1-.9c0-.1.1-.2 0-.3s-.3-.1-.6 0c-.1 0-.1 0-.2.1.4-.6 3.5-3.1 4.3-3.5l-.1-.3-3.7 1.3s0-.1 0-.2-.1-.3-.2-.4-.2-.1-.4 0-.6.3-1.1.6-1 .7-1.3.7c-.1 0-.1 0-.1 0v-.1c0-.1 0-.3-.1-.4s-.3-.1-.4-.1c-.2 0-.6.3-1.3.6-.4.2-.8.4-1.1.5.1-.2.2-.4.1-.5 0 0-.1-.1-.2-.1-.6.1-1.4.5-2.3 1s-1.8.9-2.4 1c0 0-.1-.1-.2-.2-.1-.2-.2-.4-.5-.3-.2 0-.5.2-.9.4-.3.2-.6.4-.8.4-1 .1-2 .3-2.9.4-2.2.3-4.2.6-5.6.6-4.5.2-14 5.8-17.4 7.9 1.6-1.5 4.6-4.4 6.9-6.7 1.2-1.2 2.7-3.8 4.2-7.3.2-.4.7-1.1 1.3-1.9s1.2-1.6 1.4-2c.1-.3.1-.6 0-.7-.3-.3-.9-.1-1.5.2-.2.1-.4.2-.6.2.1-.3.3-.5.5-.7.2-.3.4-.5.5-.9.1-.3.6-.9 1.1-1.5.6-.7 1.1-1.3 1.2-1.6 0-.2 0-.3 0-.4-.1-.2-.4-.2-.7-.3-.1 0-.3 0-.4-.1s0-.1.1-.2c.4-.6.6-1.9.7-2.6v-.2c.1-.4-.2-.6-.4-.6-.2-.1-.2-.1-.2-.2 0-.3.5-1 .9-1.7.5-.8 1-1.6 1.1-2 0-.1 0-.1-.1-.2s-.3 0-.6.1c-.1 0-.3.1-.4.1.2-.4.4-.9.7-1.4.4-.7.7-1.3.8-1.6 0-.2 0-.3-.1-.4s-.4-.1-.6-.1c-.1 0-.3.1-.4 0 0 0 0-.1 0-.2s.5-1 .9-1.6c.6-1 .9-1.5.9-1.6s.1-.3-.1-.4c-.1-.1-.4 0-.6.1-.1 0-.2.1-.2.1v-.1c.1-.2.5-.7.8-1.2.4-.5.8-1 .9-1.3 0-.1 0-.3 0-.4-.1-.1-.2-.2-.3-.2h-.1s0 0 0-.1c.1-.3.5-.9.8-1.4s.7-1 .8-1.3c0-.1 0-.2 0-.2-.1-.1-.3-.1-.5-.1 0 0-.1 0-.2 0 .8-2.4 1.6-4.7 1.6-4.7l.2-.5-.4.3s-2.5 2-4.3 3.4c0-.1 0-.3 0-.4 0-.3 0-.6-.2-.6-.1 0-.2 0-.3.1-.2.2-.4.8-.7 1.7-.2.5-.3 1-.5 1.2s-.1-.1-.1-.1c-.1-.1-.3-.3-.5-.3-.1 0-.3.1-.4.2-.2.2-.5.7-.8 1.4-.4.7-.8 1.5-1 1.6 0 0 0 0-.1 0 0-.1 0-.1 0-.2 0-.2 0-.5-.1-.6-.2-.1-.3 0-.5.2s-.6.7-1.1 1.3c-.4.5-.9 1.2-1.1 1.3 0 0-.1.1-.1.1 0-.1 0-.1 0-.2.1-.2.1-.5-.1-.6-.1-.1-.3 0-.5.2-.1.1-.2.2-.5.8-.4.7-.9 1.6-1.2 2-.2.2-.2.2-.2.2s-.1-.1-.1-.2-.1-.2-.2-.2h-.1-.1c-.4.3-.7.9-1 1.4s-.6 1-.9 1.3c0-.1-.1-.3-.1-.4 0-.3-.1-.6-.2-.7-.1 0-.2 0-.3.1-.2.2-.6 1.1-1.1 2.5-.4 1-.8 2.1-1 2.2-.1.1-.2.2-.3.2-.2-.1-.3-.6-.5-.9-.1-.4-.2-.8-.5-.9-.1 0-.2 0-.4.2s-.6 1.5-1.1 3.5c-.4 1.4-.8 2.9-1 3.1-.1 0-.3-.3-.4-.5-.2-.4-.4-.7-.7-.6-.1 0-.2 0-.3.2-.3.7-.8 1.6-1.2 2.3-.6 1.3-1.1 2.6-1.7 4l-.1.3c-2 5.2-3.8 10.7-4.4 12.6 0-.9.1-2.6.8-5.8.5-2.3 0-6.3-1.2-11-.1-.5-.1-1.3-.1-2.1 0-.9 0-1.8-.1-2.4-.2-.7-.8-.6-1.3-.6s-.8.1-1-.3c0-.3.6-4.1.7-4.7 0-.1 0-.2-.1-.3s-.3-.1-.6 0c-.1 0-.3.1-.3.1s0 0 0-.1c.2-.8-.2-2.2-.2-2.3-.1-.2-.2-.2-.2-.2-.3 0-.5.4-.9 1.4-.2.4-.4.9-.6 1.1-.2-.4-.3-1.6-.4-2.6-.1-1.3-.2-2.2-.4-2.4-.3-.3-.6-.3-.9-.2s-.6.1-.9-.7c-.1-.3-.1-1-.1-1.6 0-.7 0-1.4-.1-1.8 0-.1-.1-.3-.3-.3s-.3.2-.5.5c-.1.1-.1.3-.2.3 0 0 0 0 0-.1-.1-.2-.1-1.2-.1-2.1 0-1.2 0-2-.1-2.2 0-.1-.1-.2-.2-.2-.2-.1-.4 0-.6.1-.1.1-.3.1-.4.1-1.2-3.7-2.1-7-2.1-7l-.2-.7-.1.7s-.3 2.2-.6 5.1c0 .2-.2.3-.4.4s-.5.2-.6.7c0 .4.2 1.4.5 2.4.2.9.5 1.9.5 2.3 0 .2-.1.2-.1.3-.1 0-.2 0-.4-.1s-.4-.2-.5-.1c-.1 0-.1.1-.2.3-.2 1.7-.1 2.7.2 3 .1.1.2.2.2.3-.1 0-.2-.1-.3-.1-.4-.2-.9-.3-1.2-.2-.1 0-.1.1-.2.3-.1.9.2 2.3.4 3.4.1.7.3 1.4.2 1.6 0 .1-.1.2-.1.3-.1.1-.3 0-.5-.1-.3-.1-.5-.2-.8-.1-.2.1-.3.2-.4.5 0 .1.1.3.4.7.2.3.6.7.6.9 0 .1-.2.2-.4.3-.3.1-.7.3-.6.7 0 .6.5 1.7.9 2.6.3.5.6 1.2.5 1.3-.1.4-.5.4-1.2.4-.6 0-1.3 0-1.5.6-.3.9-.1 2.5.1 4 .1.7.2 1.3.2 1.9.3 4.2 3.6 12.1 9.9 23.3-1.7-1.6-5.4-4.6-7.5-5.8-.2-.1-.5-.4-.9-.7-.8-.7-1.9-1.7-3.6-2.5-.7-.3-3.7-1.8-4.5-2.1-.1-.1-.2 0-.3 0-.2.2-.1.6.1 1.6.1.4.2 1 .2 1.2-.1 0-.2-.1-.4-.4-.1-.1-.1-.2-.3-.3-.8-1-2.6-3.4-4.4-4.4-.1-.1-.3 0-.3 0-.2.1-.2.7-.2 1.5v.6c0-.1-.1-.1-.1-.2-.5-1-2.1-2.8-2.9-3.3-.5-.3-.8.2-1.1.5-.1.1-.2.3-.2.3-.2-.2-.6-.6-1.1-1-1.3-1.2-2.3-2.2-2.8-2.4-.2-.1-.3 0-.3 0-.2.1-.1.5-.1.8 0 .2.1.5 0 .5 0 0 0 0-.1 0-.2-.1-.9-1-1.5-1.8-.9-1.1-1.5-1.8-1.7-2-.1 0-.2-.1-.4 0s-.1.4-.1.6v.4s0 0-.1 0c-.3-.1-1-.6-1.6-1.1-.8-.6-1.5-1.1-1.9-1.2-.2 0-.3 0-.4 0-.2.1-.2.4-.2.6v.4c-.4-.1-.8-.1-1.2-.2-.8-.2-1.5-.3-1.8-.1-.1.1-.2.3-.2.6s.5.9 1 1.4c.4.4.7.8.8 1 .1.1-.1.2-.5.4-.3.1-.5.3-.6.5v.3c.2.3.8.8 1.4 1.3.5.4 1 .8 1.2 1 .1.1.1.1.1.1s-.2.1-.3.1c-.2.1-.4.1-.5.3s.1.3.1.4c.2.2 1 .7 2.3 1.4.9.5 1.8 1 2 1.2s.2.3.2.4-.4.1-.6.1c-.3 0-.6 0-.7.2-.1.1 0 .2.1.4.5.8 4.9 4.1 5.8 4.2.1 0 .2.1.3.1-.2.1-.5.1-.8.2-1 .2-1.4.3-1.5.5 0 0 0 .1.1.2.4.4 1.3.9 2.3 1.3.9.4 1.8.8 2.1 1.2v.1c0 .1-.4.2-.6.3-.4.1-.8.3-.8.5 0 .1 0 .2.1.3.6.7 3.9 2.6 5.9 2.8.3 0 .4.1.4.1 0 .1-.5.5-.8.7-.5.4-1 .7-1 1.1 0 .1 0 .2.2.3.2.2 1 .4 1.9.7.8.3 1.9.6 2.1.8 2.6 2.9 8.1 4 10.3 4.3-.6.2-1.3.4-1.8.6-.2.1-.7.1-1.1.1-.6 0-1.1.1-1.3.1-.1.1-.2.1-.2.2 0 .2.1.3.3.4 0 0 .1.1.1.1-.8.4-1.5.6-2 .7-.1 0-.2.1-.2.1-.1.1 0 .3 0 .4.1.2.1.2 0 .3-.4.1-.9.2-1.5.3-.7.1-1.4.2-1.7.4-.1.1-.1.2-.1.3 0 .2.3.3.5.4.1.1.4.2.4.2v.1c-.1.1-.5.4-.8.7-.5.4-.8.7-.9.9-.1.1-.1.1 0 .2 0 .1.2.2.3.3 0 0 .1.1.1.1-.3.3-.8.5-1.3.7-.8.3-1.8.6-2.3 1.5v.2c.1.2.6.2 2 .2.9 0 2 0 2.4.1 0 0-.1.1-.2.2s-.3.3-.3.4.1.1.2.2c.2.1.6.1.9.2.3 0 .6.1.7.1.2.1.3.2.3.3.1.1.2.3.5.4.5.1 1.4-.2 2.3-.6.6-.2 1.3-.5 1.7-.5v.3c0 .2 0 .3.1.4 0 0 .1.1.2.1.8-.1 1.8-.4 2.8-.7.1 0 .2 0 .3.2.1.1.3.3.6.2s.6-.4.9-.7.6-.5.8-.6c1.2-.4 2.3-1.1 3.3-1.7.3-.2.6-.4.9-.5s3.5-3.6 5.2-3.5c-2.9 5.4-10.4 21-12.1 27.5-.9 3.5-1.6 5.6-2.1 7-.5 1.6-.8 2.2-.4 2.7 0 0 .1.1.1.1.6.6 2.3 1.9 3.1 1.6.2-.1.4-.2.4-.7 0-1.3.7-6.6 2.3-12.8 1.3-4.8 7.3-18.9 9.8-24.6.9 1.6 1 4.3 1.3 8.6v.4c.1 2.1 1.3 4.3 3.7 6.9.3.3.6.8.9 1.3.4.6.7 1.2 1.1 1.5 0 0 .2.2.3.1.2-.1.2-.3.2-.5 0-.1 0-.1 0-.2.1.1.3.7.5 1.1.2.6.4 1 .5 1.1.2.2.5 0 .7-.1.1-.1.2-.1.2-.1.3.3 1 1.5 1.4 2.2.1.2.2.4.3.5 0 0 .1.2.3.2s.2-.2.3-.3c0-.1.1-.3.2-.3h.1c.2.2.4.4.7.7.4.4.8.9 1.2 1.1.1.1.3.1.4.1.2-.1.3-.3.3-.5 0 0 0 0 0-.1.7 1 1.9 1.5 1.9 1.5l.2.1v-.2c0-.1.1-1.3-.6-2.4.1 0 .1 0 .2-.1s.1-.2.1-.3-.1-.4-.3-.6c-.2-.3-.4-.7-.5-1.1 0-.1.3 0 .5 0h.5s.1-.1.1-.2c0-.3-.2-.7-.4-1.2-.2-.4-.4-.8-.4-1.1h.1c.1.1.3.1.4.1 0 0 .1-.1.1-.2 0-.3-.4-.6-.9-1.1-.3-.3-.8-.8-.8-1 0 0 0 0 0-.1h.1c.2.1.3.1.5 0 .1-.1.2-.2.2-.4 0-.4-.3-1.4-.6-2.3-.2-.7-.5-1.4-.5-1.7 0-3.1-1.1-5.3-2-6.5 1.5 1.4 4.2 3.8 6.8 6.7 2 2.2 5.1 4 8.7 4.9.3.1 1.1.6 2 1 1 .6 1.9 1.1 2.3 1.1.3.1.5 0 .6-.1.2-.1.1-.4.1-.6s0-.3 0-.4c0 0 .2-.1.3 0 .2 0 .7.3 1.3.5.9.4 2 .9 2.9 1.1.1 0 .3 0 .4-.1.1-.2 0-.4-.2-.6-.1-.1-.1-.2-.2-.3.3 0 1.5.4 2.6.7s2 .6 2.2.6c.4.1.5-.4.5-.6 0-.1 0-.2 0-.2.3.1.6.1 1 .2.7.2 1.4.4 2.5.3h.1v-.1c0-.1-.1-.2-.3-.4-.1-.1-.2-.2-.2-.3.2 0 .5.1.7.1 1.1.2 2.1.3 2.4.2.2 0 .4-.1.5-.3s0-.5 0-.8c0-.1-.1-.2-.1-.3h.2c1.5.3 3.7-.3 3.8-.3l.2-.1-.1-.2c1 0-.1-1.4-2.2-1.7z" fill="#fff" opacity=".1"/></svg>