<?xml version="1.0" encoding="utf-8"?>
<!-- Generator: Adobe Illustrator 21.1.0, SVG Export Plug-In . SVG Version: 6.00 Build 0)  -->
<svg version="1.1" id="Layer_1" xmlns="http://www.w3.org/2000/svg" xmlns:xlink="http://www.w3.org/1999/xlink" x="0px" y="0px"
	 viewBox="0 0 500 281.2" style="enable-background:new 0 0 500 281.2;" xml:space="preserve">
<style type="text/css">
	.st0{fill:#2A2A4D;}
	.st1{opacity:0.1;fill:#FFFFFF;enable-background:new    ;}
</style>
<path class="st0" d="M-13.7-6.2h537v298.7h-537L-13.7-6.2z"/>
<path class="st1" d="M448.5,111.3c-0.5-1-2.1-0.7-2.5-0.7c-0.4-0.3-2.3-1.4-3.4-1.2s-3.5,4.9-4.4,6.9c-0.1-0.9-0.4-2.4-1-3
	c-0.2-0.2-0.4-0.2-0.6-0.2c-1.2,0.2-5.9,6.4-7.4,8.4c0-1.5,0-4.8-0.7-5.4c-0.1-0.1-0.3-0.2-0.4-0.1c-1,0.1-2.9,4.5-3.8,6.5
	c-0.1-0.9-0.4-2.3-0.9-2.8c-0.2-0.2-0.4-0.2-0.6-0.2c-1.2,0.2-1.6,3.4-1.7,5c-2-1.1-5.9-3.3-6.7-2.2c-0.1,0.2-0.6,0.9,1.2,3.8
	c-0.7-0.2-1.1-0.1-1.3,0.2c-0.3,0.5-0.1,1.5,0.8,3l-1.6,1.2l0.3,2.9c-0.1,0.1-0.2,0.1-0.2,0.2c-0.1,0.1-0.1,0.1,0,1.6l0.1,1.4
	c-0.3-0.3-0.5-0.2-0.7-0.2c-0.8,0.3-1.4,2.2-1.7,3.4c-0.3-1.5-0.9-4.4-1.1-5.9c0-0.4-0.2-0.6-0.4-0.7c-0.5-0.1-1.5,1-2.8,3.4
	c-0.3-1.5-0.5-3.2-0.6-4c0-0.4-0.2-0.5-0.3-0.6c-0.2-1.1-0.3-2-0.4-2.5c0-0.4-0.2-0.6-0.4-0.7c-0.7-0.2-1.8,1.5-2.4,2.3l-2.3-1.4
	c-0.1-0.1-0.2-0.2-0.2-0.3c0.1-0.8-0.3-1.9-1.2-3.2c-2-3-6.3-6.7-7.8-7.1c0-0.1-0.1-0.2-0.3-0.2s-0.4,0.1-0.4,0.3
	c-1.5,1.1-4.6,8-5.2,9.4c-0.4-0.2-1.1-0.7-1.8-0.6c-0.4,0.1-0.7,0.3-1,0.6c-0.5,0.7-0.2,2.8,0,4.9c0.2,1.8,0.5,3.9,0.1,4.4
	c-0.3,0.5-1.7-0.4-2.9-1c-1.4-0.8-2.7-1.5-3.2-0.9c-0.8,1,0.6,3.7,1,4.5c-0.6,0.3-2.2,1.1-2.1,2.4c0,0.7,1.2,1,3.1,1.3v0.4
	c0,0.8,1.6,1.1,4.2,1.5c0.5,0.1,1,0.2,1.5,0.3c-0.3,1.9,3,5.8,4.4,7.5c-2.4-0.9-9-3.4-10.3-3.3c-0.4,0-1,0.3-1.3,1.4
	c-0.1,0-0.2,0-0.3,0c-0.2,0-0.3,0.1-0.4,0.2s-0.1,0.3-0.1,0.5c-1.4-1.4-2.4-2.1-3-2.1c-0.2,0-0.4,0.1-0.5,0.3
	c-0.4,0.7,0.4,2.5,0.8,3.3c-1.2,0.3-5.2,1.3-5.9,2.1c-0.1,0.1-0.1,0.2-0.1,0.3c0.2,1.2,5.7,4.9,7.6,6.1c-1,0.3-3,1-3,1.9
	c0,1,4.7,2.1,7.1,2.6c-0.7,0.6-2.1,2-2.1,2.8c0,0.2,0.1,0.3,0.2,0.4c0.2,0.2,0.6,0.6,7.8-1c1.1-0.2,2.2-0.5,3.1-0.6l-1.9,6.9
	l9.5-3.8c-0.1,0.8-0.1,2.6,0.6,3c0.5,0.2,1.1-0.2,1.9-1.2l0.1-0.1c0.4-0.1,0.8-0.5,1.3-1.1c0.3-0.4,0.8-0.9,1.3-1.5
	c0.5,0.1,1.1-0.6,1.3-0.9c0.1-0.1,0.2-0.3,0.3-0.4c0.3,0,0.6-0.3,1-0.8c0.3-0.4,0.7-0.8,1.2-1.3c0.2-0.2,0.5-0.4,0.7-0.6
	c0.3,0,0.6-0.3,0.7-0.5c0-0.1,0.1-0.1,0.1-0.2c0.8-0.6,1.6-1.2,2.2-1.7c-0.1,0.2-0.2,0.3-0.3,0.5l-0.2,0.2c-0.4,0.5-0.8,1.1-1.1,1.6
	c-0.2,0.4-0.5,0.7-0.7,1.1c-6.6,9-9,14.9-7.1,17.8v0.1l3.4,0.7v-0.2c0-0.1,2.9-12.3,8-21.9c0,0,0,0.1,0.1,0.1
	c0.1,0.1,0.1,0.1,0.2,0.1c0.2,0.3,0.3,0.6,0.4,0.8c-0.8,1.5-0.6,2.3-0.2,2.9c-0.4,1-0.6,1.9-0.5,2.6c-0.2,0.8-0.2,1.6,0,2.2
	c-0.3,0.9-0.4,1.8-0.4,2.5c-0.8,4.1,2.2,5.3,2.7,5.5c0.2,0.3,1.1,1.7,1.4,4c0,0.2,0.1,0.8,0.5,0.9c0.7,0.1,1.8-1.5,2.6-3
	c0.3,1.2,0.6,2.1,0.9,2.7c1,3.6,1.4,3.9,1.6,4.1s0.3,0.1,0.4,0.1c0.2-0.1,0.7-0.3,1.1-4.1c1,2.7,4.6,7.5,5.6,7.5
	c0.9,0,1.6-3.4,1.9-5.2l2.7,3.3c0.4,0.3,4,2.6,5,2.6c0.1,0,0.2-0.1,0.2-0.1c0.2-0.2,0.6-0.7-0.9-8.7c1.6,2.1,3.2,3.3,4.3,3.9
	c3.1,3.4,5.8,3.9,5.9,4l0.4,0.1l-1.7-4.3c1.7,0.5,8.2,2.5,9.9,2.7c0.1,0.1,0.2,0.2,0.4,0.2h0.2c0.1-0.1,0.2-0.2,0.2-0.4
	c0.3-0.6-0.7-2.2-1.5-3.4c1,0.4,2.6,0.8,3.2,0.1c0.2-0.2,0.7-1-4.6-5.4c0.2-0.1,0.4-0.3,0.6-0.6c0.1-0.1,0.1-0.2,0.1-0.4
	c-0.4-1.7-10.3-7.5-11.4-8.2c-5.7-1.8-6.8-3.1-7-3.7c0-0.2,0-0.3,0-0.4l13.2,0.7c0.4,0.2,0.8,0.4,1,0.6c0.3,0.2,0.5,0.3,0.8,0.3
	c0.2-0.1,0.4-0.3,0.6-0.6c1.2,0.2,2.1,0.6,2.7,1.1c0.4,0.3,0.7,0.4,1,0.3c0.7-0.3,0.9-2,0.9-2.6c0.7,0,3.1-0.2,4.8-0.3
	c0.1,0.1,0.1,0.1,0.3,0.1h0.1c0.2,0,0.3-0.1,0.4-0.3c0.1-0.1,0.1-0.2,0.1-0.3c0.2-1.1-4.1-5.1-5.9-6.8c0.5,0.1,1.1,0.1,1.4-0.2
	c0.3-0.2,0.4-0.6,0.3-1c-0.2-1.1-3.1-1.3-8.5-0.7c-0.4,0-0.9,0-1.4,0.1c0.5-0.8,1.2-2.3,1-3.7c0-0.2-0.1-0.3-0.3-0.4
	c-0.3-0.2-1.2-0.8-8.1,1c-1.3,0.3-2.8,0.6-4.5,1.1c-1,0.2-2.3,0.4-3.9,0.8c-1.5,0.3-3.2,0.7-4.1,1h-0.1c-0.3-0.1-0.6-0.3-0.6-0.5
	c-0.2-0.4,0-0.8,0.1-1c11.1-4.2,19.1-8.7,20-10.1c0.6-0.9-0.7-2.3-2.1-3.3c0.5-0.3,1-0.7,1.4-1.1c4.7-1.9,6-5.3,7-7.7
	c0.3-0.7,0.5-1.3,0.8-1.7s0.2-0.7,0-0.9c-0.7-1-5.3,0.1-7.3,0.7c0.8-0.9,2.2-2.5,2-3.9c-0.3-1.7-3.7-1.5-5-1.3
	c0.9-1.2,3.4-4.5,3.8-5.2c0.1-0.2,0.1-0.4,0-0.6c-0.3-0.5-1.7-0.6-2.4-0.6l1.5-6.2c0.3-0.4,2.6-3.3,2.8-4.7c0.1,0,0.1-0.1,0.1-0.2
	s0-0.2,0-0.3C448.7,111.4,448.6,111.4,448.5,111.3L448.5,111.3z M413.6,139.7c0-0.1,0-0.2,0-0.2c0-0.1,0-0.3,0-0.4
	c0,0.1,0.1,0.3,0.1,0.5C413.7,139.7,413.6,139.7,413.6,139.7L413.6,139.7z M413.7,138.7c0,0,0,0.1-0.1,0.1c0-0.1,0-0.2,0-0.4
	L413.7,138.7z M413.3,142.4v0.6c-0.1,0-0.1,0.1-0.2,0.1C413.3,142.8,413.3,142.6,413.3,142.4L413.3,142.4z M412.7,150.8
	C412.7,150.7,412.7,150.7,412.7,150.8c0-0.5,0.1-0.9,0.1-1.4c0.2-1.6,0.4-2.6,0.3-3.1c0.1-0.3,0.1-0.6,0.1-0.9
	c0,0.4,0.1,0.9,0.1,1.5v0.4l0.1,1.6c-0.2,0.1-0.3,0.2-0.4,0.3c-0.2,0.1-0.2,0.1,0,2.1c-0.1,0-0.1,0-0.2-0.1
	C412.8,151,412.8,150.8,412.7,150.8L412.7,150.8z M410.8,164.8l0.1,0.1C410.8,164.9,410.8,164.9,410.8,164.8z"/>
</svg>
