<svg enable-background="new 0 0 500 125" viewBox="0 0 500 125" xmlns="http://www.w3.org/2000/svg"><path d="m-4-8.7h527.3v174.4h-527.3z" fill="#7b6a46"/><path d="m194.4 121.2c-4.8-4.4-3.7-4.3-16-7.6 0 0-10-1.2-14.8-8.3-4.1-6-9.4-9.2-13.5-14.8-.7-1.2-1.5-2.3-2.1-3.3-.2-.4-.5-.8-.8-1.2-5.1-7.5-9.5-12.1-16.7-16.5-12.7-7.7-34.2-4.9-34.2-4.9-19.5 2-27 12.5-27 12.5-7.2 14.1 0 23.5 0 23.5 2.7 8.4 26.6 2.9 26.6 2.9 10-1.9 8.3 2.4 8.3 2.4-2.8 5.2-13.3 6.7-13.4 6.7-6.3.7-15.4.1-22.9-6.9 0 0-13.8-13.4-.4-29.4 0 0 6.4-7.6 16.2-12.2 0 0 8.2-6.1-1.3-16.3-3.7-3.9-8.9-5.9-19.3.5 0 0-9.6 8.4-13 4.6 0 0-2-5.8-.6-15.4 0 0 .6-2.2.7-4.6.6-.8 1.3-2.4.7-5-1.1-4.5-8-13.6-8-13.6s-4-1.6-3.7 4.3 0 14.1 3.7 15.2c0 0 .8.1 1.5 1.9.5 3.6 1 10.2-.5 17.1-2.2 10.4 9.8 11.2 13.8 8.6s7.2-7 12.4-6.6 5.2 5.7-1 7.9c0 0-18.8 3.4-25.5 23.4-7.3 22 13.5 39.8 21.3 43.8 9.6 4.9 37.4 6.6 49.6-1.2 8.9-3.6 12.4-19 12.4-19 1.9-15.3-6.1-20.3-6.1-20.3-6.8-5.8-20.4-5.1-25.5-4.6-1.3.1-6.5 1.8-7.6 1.7-1.8-.1-1.9-1.3-1.9-1.3-2.1-2.8 13.9-6.1 14.8-6.1 13.7 0 21.8 3.6 26.2 6.8 0 0 10.9 12.2 16.3 20.6 5.5 8.4 12.9 9.5 16.2 9.5s20.2 2.1 24.6 4c0 0 14.8 6.1 14.8 9.5-.1-.3.5-3.9-4.3-8.3z" fill="#fff" opacity=".1"/></svg>