<?xml version="1.0" encoding="utf-8"?>
<!-- Generator: Adobe Illustrator 21.1.0, SVG Export Plug-In . SVG Version: 6.00 Build 0)  -->
<svg version="1.1" id="Layer_1" xmlns="http://www.w3.org/2000/svg" xmlns:xlink="http://www.w3.org/1999/xlink" x="0px" y="0px"
	 viewBox="0 0 500 125" style="enable-background:new 0 0 500 125;" xml:space="preserve">
<style type="text/css">
	.st0{fill:#7B6A46;}
	.st1{opacity:7.000000e-02;fill:#FFFFFF;enable-background:new    ;}
</style>
<path class="st0" d="M-4-8.7h527.3v174.4H-4V-8.7z"/>
<path class="st1" d="M194.4,121.2c-4.8-4.4-3.7-4.3-16-7.6c0,0-10-1.2-14.8-8.3c-4.1-6-9.4-9.2-13.5-14.8c-0.7-1.2-1.5-2.3-2.1-3.3
	c-0.2-0.4-0.5-0.8-0.8-1.2c-5.1-7.5-9.5-12.1-16.7-16.5c-12.7-7.7-34.2-4.9-34.2-4.9c-19.5,2-27,12.5-27,12.5
	c-7.2,14.1,0,23.5,0,23.5c2.7,8.4,26.6,2.9,26.6,2.9c10-1.9,8.3,2.4,8.3,2.4c-2.8,5.2-13.3,6.7-13.4,6.7c-6.3,0.7-15.4,0.1-22.9-6.9
	c0,0-13.8-13.4-0.4-29.4c0,0,6.4-7.6,16.2-12.2c0,0,8.2-6.1-1.3-16.3c-3.7-3.9-8.9-5.9-19.3,0.5c0,0-9.6,8.4-13,4.6
	c0,0-2-5.8-0.6-15.4c0,0,0.6-2.2,0.7-4.6c0.6-0.8,1.3-2.4,0.7-5c-1.1-4.5-8-13.6-8-13.6s-4-1.6-3.7,4.3s0,14.1,3.7,15.2
	c0,0,0.8,0.1,1.5,1.9c0.5,3.6,1,10.2-0.5,17.1c-2.2,10.4,9.8,11.2,13.8,8.6s7.2-7,12.4-6.6s5.2,5.7-1,7.9c0,0-18.8,3.4-25.5,23.4
	c-7.3,22,13.5,39.8,21.3,43.8c9.6,4.9,37.4,6.6,49.6-1.2c8.9-3.6,12.4-19,12.4-19c1.9-15.3-6.1-20.3-6.1-20.3
	c-6.8-5.8-20.4-5.1-25.5-4.6c-1.3,0.1-6.5,1.8-7.6,1.7c-1.8-0.1-1.9-1.3-1.9-1.3c-2.1-2.8,13.9-6.1,14.8-6.1
	c13.7,0,21.8,3.6,26.2,6.8c0,0,10.9,12.2,16.3,20.6c5.5,8.4,12.9,9.5,16.2,9.5s20.2,2.1,24.6,4c0,0,14.8,6.1,14.8,9.5
	C198.6,129.2,199.2,125.6,194.4,121.2z"/>
</svg>
