<svg enable-background="new 0 0 500 125" viewBox="0 0 500 125" xmlns="http://www.w3.org/2000/svg" xmlns:xlink="http://www.w3.org/1999/xlink"><clipPath id="a"><path d="m0 0h500v125h-500z"/></clipPath><clipPath id="b"><path d="m85.9-14.9s-34.6 52.3-39.5 61.8l58.5 44.2 32-20.9 8.6-34.8 3.1-29.9-10.7-29.5-23-9.2z"/></clipPath><path d="m0 0h500v125h-500z" fill="#cf6767"/><g clip-path="url(#a)" opacity=".27"><circle cx="4.3" cy="71.1" fill="none" r="13.3" stroke="#fff" stroke-miterlimit="10" stroke-width=".5"/><circle cx="465.4" cy="14.7" fill="none" r="8.1" stroke="#fff" stroke-miterlimit="10" stroke-width=".5"/><circle cx="481.2" cy="72.5" fill="none" r="7.8" stroke="#fff" stroke-miterlimit="10" stroke-width=".5"/><circle cx="473.5" cy="86.6" fill="none" r="3.2" stroke="#fff" stroke-miterlimit="10" stroke-width=".5"/><path d="m484.6 173.8c-.1-.1-.1-.1-.2-.2l-57.2-60.1c-.6-.9-1.3-1.7-2.1-2.3-5.7-4.2-13.1-1.8-16.3-2.8s-5.6.4-5.6.4-7.7 19.7-8 22.2c-.3 2.6 1.7 4.7 1.7 4.8l59.5 62.6.1.1c.6.4 2.9 1.8 7.2 1.7 4.9-.1 21.9-9.3 23.6-13.3 1.8-4.1.5-9.8-2.7-13.1z" fill="#fff"/><path d="m404.2 110.4s1.2 3.2 2.6 3.9" fill="none" stroke="#fff" stroke-miterlimit="10" stroke-width=".25"/><path d="m403.9 112.9s.7 1.4 1.3 2" fill="none" stroke="#fff" stroke-miterlimit="10" stroke-width=".25"/><path d="m403.7 114.7s.2.6.7.9" fill="none" stroke="#fff" stroke-miterlimit="10" stroke-width=".25"/><path d="m404.6 143.8s7.5-17.8 9.9-18.8 11.9-6.5 16.6-6.4" fill="none" stroke="#e8a0d7" stroke-linecap="round" stroke-linejoin="round" stroke-miterlimit="10"/><path d="m346.3 125.1s5.9 2.2 7.1 3 44.1 135.7 55.5 146.9l-31.4-4.4-50.3-38.2z" fill="#fff" stroke="#fff" stroke-miterlimit="10" stroke-width=".25"/><text fill="#fff" font-family="'STXingkai-SC-Light'" font-size="40.2137" opacity=".16" transform="matrix(.8588 -.5123 .5123 .8588 -66.0709 230.2757)">どきどき</text><text fill="#fff" font-family="'STXingkai-SC-Light'" font-size="40.2137" transform="matrix(.8588 -.5123 .5123 .8588 -75.2986 225.4721)">どきどき</text><path d="m572.3-98.2-340.7 124.2-7.1-19.6 340.7-124.2z" fill="#acdbea"/><g stroke-miterlimit="10"><path d="m568.4-100.1-340.7 124.1-7.1-19.5 340.7-124.2z" fill="#fff" stroke="#26ace3" stroke-width=".5"/><path d="m288.5 18.1-21.8-10.4 11.2 21.5 4.1-4.3 6.9 6.6 2.4-2.5-6.9-6.6z" fill="#f22294" stroke="#f22294" stroke-linecap="round" stroke-linejoin="round"/><path d="m288.5 18.1-21.8-10.4 11.2 21.5 4.1-4.3 6.9 6.6 2.4-2.5-6.9-6.6z" fill="#f4a6d4" stroke="#fff" stroke-linecap="round" stroke-linejoin="round" stroke-width=".5"/><path d="m358.8 45.8c-.1.2 0 .6.3.9s.6.5.8.5l8.3-6.3-1.3-1.7z" fill="#fff" stroke="#26ace3" stroke-width=".5"/><path d="m362.9 40.1s0 .1 0 0c-.7.6-.4 2 .6 3.2 1 1.3 2.3 1.9 2.9 1.4 0 0 0 0 .1-.1l21.2-7.2-12.8-16.4z" fill="#fff" stroke="#26ace3" stroke-width=".5"/><path d="m388.4 36.9s-.1.1-.1.1l2.8-2.2c-.1.1-.2.1-.3.2z" fill="#fff" stroke="#26ace3" stroke-width=".5"/><path d="m375.1 20.9c-1.8 1.9-.6 6.7 2.8 11.1 3.5 4.5 8.1 6.9 10.3 5.2 0 0 .1-.1.1-.1s.1-.1.1-.1l2.4-1.8c-1.1.6-2.7.4-4.4-.5-1.8-1-3.8-2.6-5.5-4.9-1.7-2.2-2.9-4.5-3.4-6.5-.5-2.1-.3-3.8.8-4.7l.2-.2z" fill="#fff" stroke="#26ace3" stroke-width=".5"/><path d="m390.8 35c.1-.1.2-.1.3-.2z" fill="#fff" stroke="#26ace3" stroke-width=".5"/><path d="m629.7-151.7-12.8-16.4-238.4 186.3-.2.2c-1.1.9-1.3 2.6-.8 4.7.5 2 1.6 4.3 3.4 6.5 1.7 2.2 3.7 3.9 5.5 4.9 1.7.9 3.4 1.1 4.4.5l.3-.2z" fill="#f2adbf" stroke="#26ace3" stroke-width=".5"/><path d="m394.7 32c-2.1 1.7-6.7-.7-10.3-5.2s-4.7-9.6-2.6-11.2" fill="none" stroke="#fdffff" stroke-linecap="round" stroke-linejoin="round" stroke-width=".5"/><path d="m397.8 29.6c-2.1 1.7-6.7-.7-10.3-5.2s-4.7-9.6-2.6-11.2" fill="none" stroke="#fdffff" stroke-linecap="round" stroke-linejoin="round" stroke-width=".5"/><path d="m400.9 27.2c-2.1 1.7-6.7-.7-10.3-5.2-3.5-4.5-4.7-9.6-2.6-11.2" fill="none" stroke="#fdffff" stroke-linecap="round" stroke-linejoin="round" stroke-width=".5"/><path d="m404 24.7c-2.1 1.7-6.7-.7-10.3-5.2-3.5-4.5-4.7-9.6-2.6-11.2" fill="none" stroke="#fdffff" stroke-linecap="round" stroke-linejoin="round" stroke-width=".5"/><path d="m407.1 22.3c-2.1 1.7-6.7-.7-10.3-5.2s-4.7-9.6-2.6-11.2" fill="none" stroke="#fdffff" stroke-linecap="round" stroke-linejoin="round" stroke-width=".5"/><path d="m410.2 19.9c-2.1 1.7-6.7-.7-10.3-5.2s-4.7-9.6-2.6-11.2" fill="none" stroke="#fdffff" stroke-linecap="round" stroke-linejoin="round" stroke-width=".5"/><path d="m413.3 17.4c-2.1 1.7-6.7-.7-10.3-5.2-3.5-4.5-4.7-9.6-2.6-11.2" fill="none" stroke="#fdffff" stroke-linecap="round" stroke-linejoin="round" stroke-width=".5"/><path d="m416.5 15c-2.1 1.7-6.7-.7-10.3-5.2-3.5-4.5-4.7-9.6-2.6-11.2" fill="none" stroke="#fdffff" stroke-linecap="round" stroke-linejoin="round" stroke-width=".5"/><path d="m419.6 12.6c-2.1 1.7-6.7-.7-10.3-5.2-3.5-4.5-4.7-9.6-2.6-11.2" fill="none" stroke="#fdffff" stroke-linecap="round" stroke-linejoin="round" stroke-width=".5"/><path d="m422.7 10.1c-2.1 1.7-6.7-.7-10.3-5.2s-4.7-9.6-2.6-11.2" fill="none" stroke="#fdffff" stroke-linecap="round" stroke-linejoin="round" stroke-width=".5"/><path d="m629.7-151.7-12.8-16.4-238.4 186.3-.2.2c-1.1.9-1.3 2.6-.8 4.7.5 2 1.6 4.3 3.4 6.5 1.7 2.2 3.7 3.9 5.5 4.9 1.7.9 3.4 1.1 4.4.5l.3-.2z" fill="none" stroke="#26ace3" stroke-width=".5"/><path d="m357.8 43.4-1.2-3.2" fill="none" stroke="#fff" stroke-width=".25"/><path d="m356.9 43.9-2.2-1.8" fill="none" stroke="#fff" stroke-width=".25"/><path d="m356.8 44.9-1-.2" fill="none" stroke="#fff" stroke-width=".25"/><path d="m358.4 49.8s-5.9 32.1 36.5 35.1c0 0 14.3 1.3 28.3-7.5s-7.7-24.9-19.8-14.4-.1 20.6 19 23c19.2 2.4 38.7-2.9 59.4 9.4 20.4 12.2 29 25.7 36 65.3" fill="none" stroke="#fff" stroke-linecap="round" stroke-linejoin="round"/></g><path d="m75.6 35.8c-1.5-2.7-12.2-22.2-23.9-28.8-12.4-7.1-55.9-125.7-56.3-126.9l9-143.8c.1 0 11-9.8 40.6-10.3.4.5 53.3 53.1 91.5 78.9.4.2 43.9 24 57.6 31.9-2.3 3.4-53.2 77.8-70.3 108.9-1.9 3.3-46 80.2-48.2 90.1z" fill="#e2eff2"/><path d="m44.9-273.9c2.3 2.3 54 53.6 91.5 78.9.4.2 43.6 23.8 57.5 31.8-3.2 4.6-53.3 78-70.2 108.8-1.9 3.3-45.1 78.7-48.2 89.9-1.9-3.6-12.4-22.2-23.7-28.6-12.3-7-55.2-123.8-56.3-126.8l9-143.7c1-.8 12.2-9.8 40.4-10.3m.1-.2c-30 .5-40.7 10.4-40.7 10.4l-9 143.9s43.8 119.8 56.4 126.9c12.6 7.1 23.9 29.1 23.9 29.1 1.2-8.3 48.3-90.5 48.3-90.5 17.6-32 70.3-109 70.3-109-13.8-7.9-57.7-31.9-57.7-31.9-38.5-26-91.5-78.9-91.5-78.9z" fill="#fff"/><path d="m44.4-273.9-1.3 1.3-.2.2.2.2c.6.6 62.9 62.8 88.7 77.1.5.3 49 28.5 55.5 31.9-.4.3-1.1 1-1.9 1.8-.3.4-.3.7-.3 1 .2.8 1.4 1.3 1.9 1.5l-1.3 4.1-2.2 2.7c-.7 1.2-73.4 115.4-82.5 132.7-1.1 1.8-22 40.9-26.5 50.4v-.1-.1-.1l-37-66.4-6.2-153.8-26.7-74c1.3-1.2 12.4-9.8 39.8-10.4m.6-.2c-30 .5-40.7 10.4-40.7 10.4l26.7 74.2 6.2 153.9 37 66.5s-.5 2.7-.5 2.7 0-.2.1-.6c.4-2 27.3-52.3 27.3-52.3 9.3-17.5 82.5-132.7 82.5-132.7l2.2-2.7 1.4-4.4s-2.8-.9-1.7-2.1 2.2-2 2.2-2c-4.9-2.5-55.8-32.1-55.8-32.1-26.1-14.4-88.7-77-88.7-77z" fill="#fff"/><path d="m17.7 48.7 36.7-101 25.9-31.3c2.1.4 45.4 8.5 46.8 13.6.1.4 0 .7-.4 1-6 5.2-52.7 101.6-55.2 106.6-4.5.5-30.3 24.4-31.4 25.5l-12.6 2.1z" fill="#e2eff2"/><path d="m80.3-83.5c1.4.3 12.1 2.3 22.8 4.8 20 4.8 23.5 7.5 23.8 8.7.1.2.1.5-.4.9-6 5.1-52.4 101-55.2 106.6-4.7.7-29.6 23.9-31.3 25.4l-12.4 2.1-9.8-16.4 36.7-100.9zm-.1-.3-26 31.4-36.7 101.1 10 16.6 12.7-2.2s27.1-25.2 31.4-25.4c0 0 49.1-101.4 55.2-106.6 6-5.3-46.6-14.9-46.6-14.9z" fill="#fff"/><path d="m37.4-4.8 45.1-78.6 37.3 29.1c-2.4 3.4-61.7 87.6-71.2 109.1l-27.9 27.3z" fill="#e2eff2"/><path d="m82.5-83.2 37.1 28.9c-3.3 4.6-61.6 87.6-71.1 109l-27.6 27 16.7-86.4zm0-.4-45.2 78.8-16.8 87.3 28.2-27.6c9.7-22 71.2-109.1 71.2-109.1z" fill="#fff"/><path d="m16.5 99c-30.7-78.5-115.9-186.2-118.6-189.6 23.5-33.8 103.5-168.1 106.4-172.9 25.6 20.9 61.9 53.3 92.4 82.8 32.6 31.4 51.8 52.7 51.4 56.9 0 .3-.1.5-.4.6-6.6 3.5-12.6 25.6-15.9 37.5-.9 3.1-1.5 5.4-1.8 6.4-.6 1.5-.6 2.7 0 3.7.7 1.2 2.1 1.5 2.6 1.6-1.2 2.1-14.5 25.5-38.2 50.4-24.3 25.3-74.9 117.2-77.9 122.6z" fill="#f0fbfc"/><path d="m4.3-263.3c54.1 44.1 144.5 130.5 143.6 139.5 0 .2-.1.4-.3.5-6.6 3.5-12.7 25.7-15.9 37.6-.8 3-1.5 5.4-1.8 6.4-.6 1.5-.6 2.8 0 3.8.7 1.1 1.9 1.5 2.5 1.6-1.6 2.9-14.8 25.8-38.1 50.2-24 25.1-73.7 115-77.7 122.4-30.7-78-114.8-184.7-118.5-189.3 23.4-33.7 102.3-166.1 106.2-172.7m0-.4s-82.5 138.6-106.5 173.1c0 0 87.4 109.7 118.7 189.8 0 0 52.8-96.5 77.9-122.8s38.3-50.6 38.3-50.6-4.5-.5-2.7-5.2 9.4-39.4 17.7-43.8c7.7-4-87.7-95.1-143.4-140.5z" fill="#fff"/><path d="m16.5 99c-30.7-78.5-115.9-186.2-118.6-189.6 23.5-33.8 103.5-168.1 106.4-172.9 25.6 20.9 61.9 53.3 92.4 82.8 32.6 31.4 51.8 52.7 51.4 56.9 0 .3-.1.5-.4.6-6.6 3.5-12.6 25.6-15.9 37.5-.9 3.1-1.5 5.4-1.8 6.4-.6 1.5-.6 2.7 0 3.7.7 1.2 2.1 1.5 2.6 1.6-1.2 2.1-14.5 25.5-38.2 50.4-24.3 25.3-74.9 117.2-77.9 122.6z" fill="#fff"/><path d="m4.3-263.3c54.1 44.1 144.5 130.5 143.6 139.5 0 .2-.1.4-.3.5-6.6 3.5-12.7 25.7-15.9 37.6-.8 3-1.5 5.4-1.8 6.4-.6 1.5-.6 2.8 0 3.8.7 1.1 1.9 1.5 2.5 1.6-1.6 2.9-14.8 25.8-38.1 50.2-24 25.1-73.7 115-77.7 122.4-30.7-78-114.8-184.7-118.5-189.3 23.4-33.7 102.3-166.1 106.2-172.7m0-.4s-82.5 138.6-106.5 173.1c0 0 87.4 109.7 118.7 189.8 0 0 52.8-96.5 77.9-122.8s38.3-50.6 38.3-50.6-4.5-.5-2.7-5.2 9.4-39.4 17.7-43.8c7.7-4-87.7-95.1-143.4-140.5z" fill="#fff"/><path d="m62.9 43.3s36.1-77 53.2-87.7" fill="none" stroke="#fff" stroke-miterlimit="10" stroke-width=".25"/><path d="m86.5-5.9-31.1 74.1-6.7-13.4z" fill="#fff" stroke="#fff" stroke-miterlimit="10" stroke-width=".25"/><path d="m159.3 11.7 38.6 8" fill="none" stroke="#fff" stroke-linecap="round" stroke-linejoin="round" stroke-miterlimit="10"/><path d="m153 30.9 23.5 13.2" fill="none" stroke="#fff" stroke-linecap="round" stroke-linejoin="round" stroke-miterlimit="10"/><g clip-path="url(#b)"><text fill="#80d7e5" font-family="'KozGoPr6N-Regular-83pv-RKSJ-H'" font-size="98.586" stroke="#fff" transform="matrix(.732 .6813 -.6813 .732 38.4277 13.2097)">舟</text></g></g></svg>