<svg enable-background="new 0 0 42.3 40.3" viewBox="0 0 42.3 40.3" xmlns="http://www.w3.org/2000/svg"><g fill="#363d54"><path d="m21.2 2.8 5.8 10.9.3.6.6.1 11.6 2-8.4 8.6-.5.5.1.6 1.8 11.8-10.8-5.5-.6-.3-.6.3-11 5.6 2.1-12.1.1-.7-.5-.5-8.6-8.7 12-1.7.7-.1.3-.6zm0-2.8-6.6 13.1-14.6 2.1 10.4 10.5-2.6 14.6 13.3-6.7 13.1 6.6-2.2-14.3 10.2-10.4-14.1-2.4z"/><path d="m21.3 8.1 4.3 7.7.3.5.6.1 8.1 1.5-6 6.2-.4.5.1.6 1.1 8.2-7.8-3.8-.6-.1-.6.3-7.7 3.8 1.4-8.6.1-.6-.5-.5-5.9-6.1 8.5-1.3.6-.1.3-.6zm0-2.7-5 9.6-11 1.7 7.6 7.9-1.9 11.2 10-4.8 10 4.9-1.5-10.6 7.6-8-10.4-1.9z"/><path d="m21.4 13.4 2.6 4.6.3.5.6.1 4.6 1-3.5 3.9-.4.4.1.6.5 4.7-4.8-2.2-.5-.2-.6.2-4.5 2 .7-5.2.1-.6-.4-.4-3.2-3.6 5.1-.9.6-.1.3-.5zm-.1-2.6-3.4 6.2-7.4 1.4 4.8 5.3-1 7.6 6.6-3 6.8 3.2-.8-7 5.1-5.5-6.8-1.5z"/><path d="m21.4 18.5 1.2 1.7.3.4.4.1 1.3.4-1.3 1.6-.3.5v.5 1.4l-1.9-.7-.4-.2-.5.2-1.4.5.1-2v-.5l-.3-.4-.9-1.1 2-.5.5-.1.3-.4zm0-2.3-1.9 2.8-3.9 1 2.1 2.7-.3 4 3.2-1.2 3.7 1.4-.1-3.3 2.5-3.1-3.2-1z"/><path d="m21.2 21-.3.6-.7.1.5.4-.2.7.7-.3.6.3-.1-.6.4-.5-.6-.1z"/></g><path d="m87.3 95 9.1 11.7h14.3l-8.3 12 4.6 13.7-14-4.3-12 8.9v-14.9l-12-8.5 14-4.6z" fill="#646464"/><path d="m87.8 97.8 7.6 9.7.4.5h.6 11.8l-6.9 10-.4.5.2.6 3.8 11.3-11.6-3.5-.6-.2-.5.4-9.9 7.3v-12.3-.7l-.5-.4-9.9-7.1 11.6-3.8.5-.1.2-.6zm-.5-2.8-4.3 14-14 4.6 12 8.6v14.8l12-8.9 14 4.3-4.6-13.7 8.3-12h-14.3z"/><path d="m88.8 103 5.5 6.9.4.5h.6l8.2.1-4.8 7.2-.4.5.2.6 2.5 7.9-8.3-2.4-.6-.2-.5.4-7 5-.1-8.7v-.6l-.5-.4-6.8-5 8.2-2.8.6-.2.2-.6zm-.5-2.7-3.3 10.4-10.5 3.6 8.8 6.5.1 11.2 9-6.5 10.6 3.1-3.3-10.2 6.2-9.2-10.6-.1z"/><path d="m89.7 108.2 3.4 4.1.4.4h.6l4.7.2-2.8 4.4-.3.5.2.6 1.3 4.5-5.1-1.3-.6-.2-.5.3-4.1 2.8-.2-5.3v-.6l-.5-.4-3.8-3 4.9-1.8.6-.2.2-.6zm-.4-2.6-2.4 6.7-7.1 2.6 5.7 4.4.3 7.6 6-4.1 7.3 1.9-2-6.8 4-6.3-7-.3z"/><path d="m90.7 113.2 1.4 1.5.3.3.5.1 1.4.2-1 1.8-.2.4.1.5.3 1.4-2-.4-.5-.1-.4.2-1.3.7-.2-2-.1-.5-.4-.3-1.1-1 1.8-.8.5-.2.2-.5zm-.4-2.3-1.4 3.1-3.6 1.6 2.5 2.3.4 4 3-1.7 3.9.8-.7-3.3 1.9-3.5-3.3-.4z"/><path d="m90.8 115.7-.2.6-.6.2.5.4v.7l.6-.4.6.2-.2-.6.4-.6h-.6z"/></svg>