<svg data-name="Layer 1" xmlns="http://www.w3.org/2000/svg" viewBox="0 0 62.29 62.01"><path d="M26.74 62a26.74 26.74 0 119.92-51.58 1.62 1.62 0 11-1.21 3 23.51 23.51 0 1010.34 8.08 1.62 1.62 0 112.63-1.9A26.74 26.74 0 0126.74 62z" fill="#dd620e"/><path d="M41.7 18a1.62 1.62 0 01-1.22-2.69c0-.05 3.8-4.42 4-8.94a1.62 1.62 0 013.24.16c-.27 5.67-4.64 10.71-4.82 10.92a1.62 1.62 0 01-1.2.55z" fill="#510028"/><path d="M54.56 20.29a15.92 15.92 0 01-4.09-.59 1.62 1.62 0 11.84-3.14c4.06 1.08 6 .12 7-.85-7.81-2.35-10.26 1-10.37 1.17l-2.74-1.76c.16-.26 4.16-6.29 16-1.83a1.62 1.62 0 011 1.91 6.79 6.79 0 01-3.12 4 8.79 8.79 0 01-4.52 1.09zM40.14 11.5a1.62 1.62 0 01-.73-.18c-3.94-2-5.38-4.58-5.89-6.39a7.19 7.19 0 01-.1-3.77A1.63 1.63 0 0135.14 0 6.8 6.8 0 0140 2.55c2.33 3 1.76 7.36 1.74 7.54a1.62 1.62 0 01-1.61 1.4zm-3.59-7.74a5.71 5.71 0 001.85 3 5.26 5.26 0 00-.94-2.21 3.24 3.24 0 00-.91-.79z" fill="#00a218"/></svg>